<svg width="480" height="77" viewBox="0 0 480 77" fill="none" xmlns="http://www.w3.org/2000/svg">
<path d="M464.118 66.305C462.058 65.977 459.995 65.645 457.953 65.341C420.127 60.642 382.145 62.054 340.126 58.814C310.764 55.624 277.008 57.003 247.522 56.843C317.281 60.048 390.727 59.257 457.685 70.053C450.793 73.66 442.58 76.528 433.111 76.5C410.369 75.008 387.926 73.932 365.662 73.163C365.721 71.615 365.837 68.59 365.895 67.068C302.379 71.436 243.983 58.863 180.3 66.148C182.498 66.98 181.085 68.222 180.555 69.211C242.912 68.099 301.019 69.868 363.119 73.081C266.657 69.841 173.41 72.31 74.388 71.559C70.174 71.527 61.729 71.462 57.509 71.43C40.994 66.694 24.255 65.024 7.39702 64.879C12.262 57.243 -3.22998 41.759 30.156 45.109C30.285 43.577 30.542 40.507 30.671 38.973C-2.332 31.019 -12.902 9.43303 21.084 3.57703C59.216 -2.24297 108.896 4.27803 155.113 1.51003C188.675 0.197032 222.186 -1.14297 255.456 2.10203C301.22 6.94803 351.483 5.63004 397.301 11.92C414.011 13.513 443.453 8.99303 451.702 13.618C457.659 15.839 457.816 19.107 456.799 22.748C429.246 22.135 401.769 21.885 374.623 21.114C341.357 19.272 308.113 17.221 274.989 14.003C307.324 18.376 340.715 20.152 374.623 21.114C401.679 22.615 428.773 23.97 455.858 25.686C454.784 28.816 453.742 32.081 455.319 35.115C455.319 35.115 463.716 35.136 467.915 35.146C484.537 42.861 480.104 53.596 471.5 61.249C469.312 62.805 466.855 64.557 464.118 66.305Z" fill="#B5EFCE"/>
</svg>
